# xmcd CD database file
#
# Track frame offsets:
#	150
#	19750
#	35279
#	51412
#	70132
#	88850
#	102183
#	118775
#	136343
#	158569
#
# Disc length: 2338 seconds
#
# Revision: 0
# Processed by: cddbd v1.5.1PL2 Copyright (c) Steve Scherf et al.
# Submitted via: CDex 1.51
#
DISCID=8009200a
DTITLE=Willie Rosario - Campanero Rumbero
DYEAR=1978
DGENRE=Salsa
TTITLE0=De Barrio Obrero A La Quince 
TTITLE1=Nicolas
TTITLE2=Oriente 
TTITLE3=Juventud Siglo XX
TTITLE4=Arrepentios Pecadores 
TTITLE5=El Bravo Soy Yo 
TTITLE6=En Bayamon
TTITLE7=La Vida 
TTITLE8=Casualidades 
TTITLE9=Yo Se De Mi 
EXTD=YEAR: 1978
EXTT0=
EXTT1=
EXTT2=
EXTT3=
EXTT4=
EXTT5=
EXTT6=
EXTT7=
EXTT8=
EXTT9=
PLAYORDER=
